<svg width="25" height="25" viewBox="0 0 25 25" fill="none" xmlns="http://www.w3.org/2000/svg">
<g clip-path="url(#clip0_8_684)">
<path d="M18.2292 4.6875C16.1979 4.6875 14.0104 5.10417 12.5 6.25C10.9896 5.10417 8.80208 4.6875 6.77083 4.6875C5.26041 4.6875 3.65625 4.91667 2.3125 5.51042C1.55208 5.85417 1.04166 6.59375 1.04166 7.4375V19.1875C1.04166 20.5417 2.3125 21.5417 3.625 21.2083C4.64583 20.9479 5.72916 20.8333 6.77083 20.8333C8.39583 20.8333 10.125 21.1042 11.5208 21.7917C12.1458 22.1042 12.8542 22.1042 13.4687 21.7917C14.8646 21.0938 16.5937 20.8333 18.2187 20.8333C19.2604 20.8333 20.3437 20.9479 21.3646 21.2083C22.6771 21.5521 23.9479 20.5521 23.9479 19.1875V7.4375C23.9479 6.59375 23.4375 5.85417 22.6771 5.51042C21.3437 4.91667 19.7396 4.6875 18.2292 4.6875ZM21.875 17.9479C21.875 18.6042 21.2708 19.0833 20.625 18.9688C19.8437 18.8229 19.0312 18.7604 18.2292 18.7604C16.4583 18.7604 13.9062 19.4375 12.5 20.3229V8.33333C13.9062 7.44792 16.4583 6.77083 18.2292 6.77083C19.1875 6.77083 20.1354 6.86458 21.0417 7.0625C21.5208 7.16667 21.875 7.59375 21.875 8.08333V17.9479Z" fill="url(#paint0_linear_8_684)"/>
<path d="M14.5625 11.4687C14.2292 11.4687 13.9271 11.2604 13.8229 10.9271C13.6875 10.5208 13.9167 10.0729 14.3229 9.94791C15.9271 9.42707 18 9.26041 19.9063 9.47916C20.3333 9.53124 20.6458 9.91666 20.5938 10.3437C20.5417 10.7708 20.1563 11.0833 19.7292 11.0312C18.0417 10.8333 16.1979 10.9896 14.8021 11.4375C14.7187 11.4479 14.6354 11.4687 14.5625 11.4687Z" fill="url(#paint1_linear_8_684)"/>
<path d="M14.5625 14.2396C14.2292 14.2396 13.9271 14.0312 13.8229 13.6979C13.6875 13.2916 13.9167 12.8437 14.3229 12.7187C15.9167 12.1979 18 12.0312 19.9063 12.25C20.3333 12.3021 20.6458 12.6875 20.5938 13.1146C20.5417 13.5416 20.1563 13.8541 19.7292 13.8021C18.0417 13.6041 16.1979 13.7604 14.8021 14.2083C14.7187 14.2291 14.6354 14.2396 14.5625 14.2396Z" fill="url(#paint2_linear_8_684)"/>
<path d="M14.5625 17.0104C14.2292 17.0104 13.9271 16.8021 13.8229 16.4688C13.6875 16.0625 13.9167 15.6146 14.3229 15.4896C15.9167 14.9688 18 14.8021 19.9063 15.0208C20.3333 15.0729 20.6458 15.4583 20.5938 15.8854C20.5417 16.3125 20.1563 16.6146 19.7292 16.5729C18.0417 16.375 16.1979 16.5313 14.8021 16.9792C14.7187 17 14.6354 17.0104 14.5625 17.0104Z" fill="url(#paint3_linear_8_684)"/>
</g>
<defs>
<linearGradient id="paint0_linear_8_684" x1="12.4948" y1="4.6875" x2="12.4948" y2="22.026" gradientUnits="userSpaceOnUse">
<stop stop-color="#6BEEFA"/>
<stop offset="1" stop-color="#6BC1FA"/>
</linearGradient>
<linearGradient id="paint1_linear_8_684" x1="17.1917" y1="9.38531" x2="17.1917" y2="11.4687" gradientUnits="userSpaceOnUse">
<stop stop-color="#6BEEFA"/>
<stop offset="1" stop-color="#6BC1FA"/>
</linearGradient>
<linearGradient id="paint2_linear_8_684" x1="17.1917" y1="12.1561" x2="17.1917" y2="14.2396" gradientUnits="userSpaceOnUse">
<stop stop-color="#6BEEFA"/>
<stop offset="1" stop-color="#6BC1FA"/>
</linearGradient>
<linearGradient id="paint3_linear_8_684" x1="17.1917" y1="14.927" x2="17.1917" y2="17.0104" gradientUnits="userSpaceOnUse">
<stop stop-color="#6BEEFA"/>
<stop offset="1" stop-color="#6BC1FA"/>
</linearGradient>
<clipPath id="clip0_8_684">
<rect width="25" height="25" fill="white"/>
</clipPath>
</defs>
</svg>
