<svg width="23" height="21" viewBox="0 0 23 21" fill="none" xmlns="http://www.w3.org/2000/svg">
<path d="M12.1771 14.3229C12.3229 13.9479 12.2292 13.5208 11.9375 13.2291L9.76041 11.0833L9.79166 11.0521C11.6042 9.03123 12.8958 6.70831 13.6562 4.24998H15.6771C16.2396 4.24998 16.7083 3.78123 16.7083 3.21873V3.1979C16.7083 2.6354 16.2396 2.16665 15.6771 2.16665H9.41666V1.12498C9.41666 0.552063 8.94791 0.083313 8.375 0.083313C7.80208 0.083313 7.33333 0.552063 7.33333 1.12498V2.16665H1.07291C0.510414 2.16665 0.0416641 2.6354 0.0416641 3.1979C0.0416641 3.77081 0.510414 4.22915 1.07291 4.22915H11.6771C10.9792 6.24998 9.875 8.15623 8.375 9.8229C7.53125 8.89581 6.82291 7.8854 6.22916 6.8229C6.0625 6.52081 5.76041 6.33331 5.41666 6.33331C4.69791 6.33331 4.23958 7.11456 4.59375 7.73956C5.25 8.91665 6.05208 10.0416 6.98958 11.0833L2.4375 15.5729C2.02083 15.9791 2.02083 16.6458 2.4375 17.0521C2.84375 17.4583 3.5 17.4583 3.91666 17.0521L8.375 12.5833L10.4792 14.6875C11.0104 15.2187 11.9167 15.0208 12.1771 14.3229ZM17.2292 8.41665C16.6042 8.41665 16.0417 8.80206 15.8229 9.39581L12 19.6041C11.75 20.2396 12.2292 20.9166 12.9062 20.9166C13.3125 20.9166 13.6771 20.6666 13.8229 20.2812L14.75 17.7916H19.6979L20.6354 20.2812C20.7812 20.6562 21.1458 20.9166 21.5521 20.9166C22.2292 20.9166 22.7083 20.2396 22.4687 19.6041L18.6458 9.39581C18.4167 8.80206 17.8542 8.41665 17.2292 8.41665ZM15.5417 15.7083L17.2292 11.1979L18.9167 15.7083H15.5417Z" fill="url(#paint0_linear_8_702)"/>
<defs>
<linearGradient id="paint0_linear_8_702" x1="11.2865" y1="0.083313" x2="11.2865" y2="20.9166" gradientUnits="userSpaceOnUse">
<stop stop-color="#6BEEFA"/>
<stop offset="1" stop-color="#6BC1FA"/>
</linearGradient>
</defs>
</svg>
