<svg width="25" height="25" viewBox="0 0 25 25" fill="none" xmlns="http://www.w3.org/2000/svg">
<g clip-path="url(#clip0_8_700)">
<path d="M13.1771 16.3229C13.3229 15.9479 13.2292 15.5208 12.9375 15.2291L10.7604 13.0833L10.7917 13.0521C12.6042 11.0312 13.8958 8.70831 14.6562 6.24998H16.6771C17.2396 6.24998 17.7083 5.78123 17.7083 5.21873V5.1979C17.7083 4.6354 17.2396 4.16665 16.6771 4.16665H10.4167V3.12498C10.4167 2.55206 9.94791 2.08331 9.375 2.08331C8.80208 2.08331 8.33333 2.55206 8.33333 3.12498V4.16665H2.07291C1.51041 4.16665 1.04166 4.6354 1.04166 5.1979C1.04166 5.77081 1.51041 6.22915 2.07291 6.22915H12.6771C11.9792 8.24998 10.875 10.1562 9.375 11.8229C8.53125 10.8958 7.82291 9.8854 7.22916 8.8229C7.0625 8.52081 6.76041 8.33331 6.41666 8.33331C5.69791 8.33331 5.23958 9.11456 5.59375 9.73956C6.25 10.9166 7.05208 12.0416 7.98958 13.0833L3.4375 17.5729C3.02083 17.9791 3.02083 18.6458 3.4375 19.0521C3.84375 19.4583 4.5 19.4583 4.91666 19.0521L9.375 14.5833L11.4792 16.6875C12.0104 17.2187 12.9167 17.0208 13.1771 16.3229ZM18.2292 10.4166C17.6042 10.4166 17.0417 10.8021 16.8229 11.3958L13 21.6041C12.75 22.2396 13.2292 22.9166 13.9062 22.9166C14.3125 22.9166 14.6771 22.6666 14.8229 22.2812L15.75 19.7916H20.6979L21.6354 22.2812C21.7812 22.6562 22.1458 22.9166 22.5521 22.9166C23.2292 22.9166 23.7083 22.2396 23.4687 21.6041L19.6458 11.3958C19.4167 10.8021 18.8542 10.4166 18.2292 10.4166ZM16.5417 17.7083L18.2292 13.1979L19.9167 17.7083H16.5417Z" fill="#6BEEFA"/>
</g>
<defs>
<clipPath id="clip0_8_700">
<rect width="25" height="25" fill="white"/>
</clipPath>
</defs>
</svg>
