<svg width="153" height="48" viewBox="0 0 153 48" fill="none" xmlns="http://www.w3.org/2000/svg">
<path d="M13.288 31.96C13.288 34.616 12.808 36.808 11.848 38.536C10.92 40.264 9.67199 41.608 8.10398 42.568C6.56798 43.56 4.72798 44.408 2.58398 45.112L0.471985 39.544C1.87998 39 2.93598 38.376 3.63999 37.672C4.34399 36.968 4.80799 36.152 5.03199 35.224C5.28799 34.296 5.41599 33.112 5.41599 31.672V3.73597H13.288V31.96Z" fill="#141414"/>
<path d="M30.2504 10.696C34.1544 10.696 37.2104 11.896 39.4184 14.296C41.6264 16.664 42.7304 19.992 42.7304 24.28C42.7304 27 42.2184 29.384 41.1944 31.432C40.2024 33.448 38.7624 35.016 36.8744 36.136C35.0184 37.256 32.8104 37.816 30.2504 37.816C26.3784 37.816 23.3224 36.632 21.0824 34.264C18.8744 31.864 17.7704 28.52 17.7704 24.232C17.7704 21.512 18.2664 19.144 19.2584 17.128C20.2824 15.08 21.7224 13.496 23.5784 12.376C25.4664 11.256 27.6904 10.696 30.2504 10.696ZM30.2504 16.264C28.7144 16.264 27.5624 16.92 26.7944 18.232C26.0264 19.512 25.6424 21.512 25.6424 24.232C25.6424 27.016 26.0104 29.048 26.7464 30.328C27.5144 31.608 28.6824 32.248 30.2504 32.248C31.7864 32.248 32.9384 31.608 33.7064 30.328C34.4744 29.016 34.8584 27 34.8584 24.28C34.8584 21.496 34.4744 19.464 33.7064 18.184C32.9704 16.904 31.8184 16.264 30.2504 16.264Z" fill="#141414"/>
<path d="M62.1696 10.696C64.3776 10.696 66.1056 11.368 67.3536 12.712C68.6016 14.056 69.2256 15.944 69.2256 18.376V37H61.6416V19.672C61.6416 18.392 61.4336 17.512 61.0176 17.032C60.6016 16.52 60.0096 16.264 59.2416 16.264C57.7056 16.264 56.2336 17.352 54.8256 19.528V37H47.2416V1.38397L54.8256 0.615967V14.248C55.8816 13.064 57.0016 12.184 58.1856 11.608C59.3696 11 60.6976 10.696 62.1696 10.696Z" fill="#141414"/>
<path d="M89.8727 10.696C92.0807 10.696 93.8087 11.368 95.0567 12.712C96.3047 14.056 96.9287 15.944 96.9287 18.376V37H89.3447V19.672C89.3447 18.392 89.1367 17.512 88.7207 17.032C88.3367 16.52 87.7447 16.264 86.9447 16.264C85.4087 16.264 83.9367 17.368 82.5287 19.576V37H74.9447V11.512H81.5687L82.0967 14.536C83.1847 13.256 84.3527 12.296 85.6007 11.656C86.8807 11.016 88.3047 10.696 89.8727 10.696Z" fill="#141414"/>
<path d="M117.576 10.696C119.784 10.696 121.512 11.368 122.76 12.712C124.008 14.056 124.632 15.944 124.632 18.376V37H117.048V19.672C117.048 18.392 116.84 17.512 116.424 17.032C116.04 16.52 115.448 16.264 114.648 16.264C113.112 16.264 111.64 17.368 110.232 19.576V37H102.648V11.512H109.272L109.8 14.536C110.888 13.256 112.056 12.296 113.304 11.656C114.584 11.016 116.008 10.696 117.576 10.696Z" fill="#141414"/>
<path d="M144.134 37.048C143.11 40.344 141.43 42.872 139.094 44.632C136.79 46.424 133.686 47.432 129.782 47.656L128.966 42.328C131.398 42.008 133.19 41.464 134.342 40.696C135.526 39.928 136.47 38.696 137.174 37H134.582L126.806 11.512H134.87L139.43 32.152L144.422 11.512H152.246L144.134 37.048Z" fill="#141414"/>
</svg>
